<?xml version="1.0" encoding="UTF-8" standalone="no"?>
<!DOCTYPE svg PUBLIC "-//W3C//DTD SVG 1.1//EN" "http://www.w3.org/Graphics/SVG/1.1/DTD/svg11.dtd">
<!-- Generated by graphviz version 2.40.1 (20161225.0304)
 -->
<!-- Title: packages Pages: 1 -->
<svg width="735pt" height="620pt" viewBox="0.00 0.00 734.52 620.00" xmlns="http://www.w3.org/2000/svg" xmlns:xlink="http://www.w3.org/1999/xlink">
<g id="graph0" class="graph" transform="scale(1 1) rotate(0) translate(4 616)">
<title>packages</title>
<polygon fill="#ffffff" stroke="transparent" points="-4,4 -4,-616 730.5232,-616 730.5232,4 -4,4"/>
<!-- yacut -->
<g id="node1" class="node">
<title>yacut</title>
<polygon fill="none" stroke="#000000" points="348.5232,-180 294.5232,-180 294.5232,-144 348.5232,-144 348.5232,-180"/>
<text text-anchor="middle" x="321.5232" y="-157.8" font-family="Times,serif" font-size="14.00" fill="#000000">yacut</text>
</g>
<!-- yacut&#45;&gt;yacut -->
<g id="edge1" class="edge">
<title>yacut-&gt;yacut</title>
<path fill="none" stroke="#000000" d="M348.764,-148.5132C358.5471,-148.2231 366.5232,-152.7188 366.5232,-162 366.5232,-167.8008 363.4075,-171.7322 358.6823,-173.7942"/>
<polygon fill="#000000" stroke="#000000" points="348.764,-175.4868 357.8644,-169.3686 353.6927,-174.6456 358.6215,-173.8045 358.6215,-173.8045 358.6215,-173.8045 353.6927,-174.6456 359.3785,-178.2403 348.764,-175.4868 348.764,-175.4868"/>
</g>
<!-- yacut.api -->
<g id="node2" class="node">
<title>yacut.api</title>
<polygon fill="none" stroke="#000000" points="228.9482,-252 162.0982,-252 162.0982,-216 228.9482,-216 228.9482,-252"/>
<text text-anchor="middle" x="195.5232" y="-229.8" font-family="Times,serif" font-size="14.00" fill="#000000">yacut.api</text>
</g>
<!-- yacut&#45;&gt;yacut.api -->
<g id="edge2" class="edge">
<title>yacut-&gt;yacut.api</title>
<path fill="none" stroke="#000000" d="M294.493,-177.4458C277.5136,-187.1483 255.292,-199.8464 236.2077,-210.7517"/>
<polygon fill="#000000" stroke="#000000" points="227.4099,-215.779 233.8597,-206.9105 231.7511,-213.2983 236.0924,-210.8176 236.0924,-210.8176 236.0924,-210.8176 231.7511,-213.2983 238.325,-214.7247 227.4099,-215.779 227.4099,-215.779"/>
</g>
<!-- yacut.models -->
<g id="node8" class="node">
<title>yacut.models</title>
<polygon fill="none" stroke="#000000" points="366.7838,-540 276.2626,-540 276.2626,-504 366.7838,-504 366.7838,-540"/>
<text text-anchor="middle" x="321.5232" y="-517.8" font-family="Times,serif" font-size="14.00" fill="#000000">yacut.models</text>
</g>
<!-- yacut&#45;&gt;yacut.models -->
<g id="edge3" class="edge">
<title>yacut-&gt;yacut.models</title>
<path fill="none" stroke="#000000" d="M315.7042,-180.1854C312.5232,-207.5017 312.5232,-260.75 312.5232,-306 312.5232,-306 312.5232,-306 312.5232,-378 312.5232,-418.124 312.5232,-464.5369 314.741,-493.5823"/>
<polygon fill="#000000" stroke="#000000" points="315.7042,-503.8146 310.2867,-494.2804 315.2355,-498.8366 314.7669,-493.8586 314.7669,-493.8586 314.7669,-493.8586 315.2355,-498.8366 319.2471,-493.4369 315.7042,-503.8146 315.7042,-503.8146"/>
</g>
<!-- yacut.settings -->
<g id="node9" class="node">
<title>yacut.settings</title>
<polygon fill="none" stroke="#000000" points="409.6195,-612 317.4269,-612 317.4269,-576 409.6195,-576 409.6195,-612"/>
<text text-anchor="middle" x="363.5232" y="-589.8" font-family="Times,serif" font-size="14.00" fill="#000000">yacut.settings</text>
</g>
<!-- yacut&#45;&gt;yacut.settings -->
<g id="edge4" class="edge">
<title>yacut-&gt;yacut.settings</title>
<path fill="none" stroke="#000000" d="M330.7878,-180.021C335.663,-190.3001 341.2853,-203.5756 344.5232,-216 376.9897,-340.5783 368.6244,-375.4456 375.5232,-504 376.3806,-519.977 377.2691,-524.0955 375.5232,-540 374.5948,-548.4575 372.8718,-557.5285 371.0154,-565.7754"/>
<polygon fill="#000000" stroke="#000000" points="368.6423,-575.6727 366.5981,-564.899 369.8082,-570.8105 370.974,-565.9483 370.974,-565.9483 370.974,-565.9483 369.8082,-570.8105 375.35,-566.9975 368.6423,-575.6727 368.6423,-575.6727"/>
</g>
<!-- yacut.api&#45;&gt;yacut.api -->
<g id="edge5" class="edge">
<title>yacut.api-&gt;yacut.api</title>
<path fill="none" stroke="#000000" d="M229.1802,-220.5297C239.1939,-220.9318 246.9857,-225.4219 246.9857,-234 246.9857,-239.3613 243.942,-243.1258 239.2145,-245.2933"/>
<polygon fill="#000000" stroke="#000000" points="229.1802,-247.4703 237.9987,-240.9524 234.0665,-246.4102 238.9528,-245.35 238.9528,-245.35 238.9528,-245.35 234.0665,-246.4102 239.9069,-249.7477 229.1802,-247.4703 229.1802,-247.4703"/>
</g>
<!-- yacut.api.errorhandlers -->
<g id="node3" class="node">
<title>yacut.api.errorhandlers</title>
<polygon fill="none" stroke="#000000" points="145.0696,-324 -.0232,-324 -.0232,-288 145.0696,-288 145.0696,-324"/>
<text text-anchor="middle" x="72.5232" y="-301.8" font-family="Times,serif" font-size="14.00" fill="#000000">yacut.api.errorhandlers</text>
</g>
<!-- yacut.api&#45;&gt;yacut.api.errorhandlers -->
<g id="edge6" class="edge">
<title>yacut.api-&gt;yacut.api.errorhandlers</title>
<path fill="none" stroke="#000000" d="M164.4851,-252.1686C148.7527,-261.3779 129.4621,-272.6699 112.6188,-282.5294"/>
<polygon fill="#000000" stroke="#000000" points="103.5514,-287.8372 109.9082,-278.9018 107.8664,-285.3113 112.1815,-282.7853 112.1815,-282.7853 112.1815,-282.7853 107.8664,-285.3113 114.4548,-286.6689 103.5514,-287.8372 103.5514,-287.8372"/>
</g>
<!-- yacut.api.views -->
<g id="node7" class="node">
<title>yacut.api.views</title>
<polygon fill="none" stroke="#000000" points="266.1046,-324 162.9418,-324 162.9418,-288 266.1046,-288 266.1046,-324"/>
<text text-anchor="middle" x="214.5232" y="-301.8" font-family="Times,serif" font-size="14.00" fill="#000000">yacut.api.views</text>
</g>
<!-- yacut.api&#45;&gt;yacut.api.views -->
<g id="edge7" class="edge">
<title>yacut.api-&gt;yacut.api.views</title>
<path fill="none" stroke="#000000" d="M200.3177,-252.1686C202.3721,-259.9537 204.8192,-269.2271 207.0988,-277.8653"/>
<polygon fill="#000000" stroke="#000000" points="209.6641,-287.5867 202.7615,-279.066 208.3883,-282.7522 207.1125,-277.9177 207.1125,-277.9177 207.1125,-277.9177 208.3883,-282.7522 211.4636,-276.7695 209.6641,-287.5867 209.6641,-287.5867"/>
</g>
<!-- yacut.api.errorhandlers&#45;&gt;yacut -->
<g id="edge8" class="edge">
<title>yacut.api.errorhandlers-&gt;yacut</title>
<path fill="none" stroke="#000000" d="M84.4005,-287.847C98.5626,-267.5639 124.0532,-235.0766 153.5232,-216 194.1355,-189.7108 248.5683,-175.3075 284.3186,-168.1295"/>
<polygon fill="#000000" stroke="#000000" points="294.3282,-166.2106 285.3543,-172.513 289.4176,-167.152 284.507,-168.0934 284.507,-168.0934 284.507,-168.0934 289.4176,-167.152 283.6597,-163.6739 294.3282,-166.2106 294.3282,-166.2106"/>
</g>
<!-- yacut.api.exceptions -->
<g id="node4" class="node">
<title>yacut.api.exceptions</title>
<polygon fill="none" stroke="#000000" points="212.8181,-540 82.2283,-540 82.2283,-504 212.8181,-504 212.8181,-540"/>
<text text-anchor="middle" x="147.5232" y="-517.8" font-family="Times,serif" font-size="14.00" fill="#000000">yacut.api.exceptions</text>
</g>
<!-- yacut.api.errorhandlers&#45;&gt;yacut.api.exceptions -->
<g id="edge9" class="edge">
<title>yacut.api.errorhandlers-&gt;yacut.api.exceptions</title>
<path fill="none" stroke="#000000" d="M73.1195,-324.1377C74.7488,-355.056 80.8295,-419.3406 103.5232,-468 108.1714,-477.9665 115.0694,-487.6663 122.0323,-496.0313"/>
<polygon fill="#000000" stroke="#000000" points="128.6567,-503.6074 118.6866,-499.0413 125.3654,-499.8433 122.0742,-496.0792 122.0742,-496.0792 122.0742,-496.0792 125.3654,-499.8433 125.4619,-493.1171 128.6567,-503.6074 128.6567,-503.6074"/>
</g>
<!-- yacut.api.utils -->
<g id="node5" class="node">
<title>yacut.api.utils</title>
<polygon fill="none" stroke="#000000" points="230.5657,-396 136.4807,-396 136.4807,-360 230.5657,-360 230.5657,-396"/>
<text text-anchor="middle" x="183.5232" y="-373.8" font-family="Times,serif" font-size="14.00" fill="#000000">yacut.api.utils</text>
</g>
<!-- yacut.api.utils&#45;&gt;yacut.api.exceptions -->
<g id="edge10" class="edge">
<title>yacut.api.utils-&gt;yacut.api.exceptions</title>
<path fill="none" stroke="#000000" d="M146.7214,-396.1426C133.0636,-404.9373 119.0699,-416.9065 111.5232,-432 101.175,-452.6965 112.3285,-477.1242 124.8715,-495.3043"/>
<polygon fill="#000000" stroke="#000000" points="131.0525,-503.6835 121.4949,-498.3074 128.0844,-499.6598 125.1162,-495.6361 125.1162,-495.6361 125.1162,-495.6361 128.0844,-499.6598 128.7376,-492.9648 131.0525,-503.6835 131.0525,-503.6835"/>
</g>
<!-- yacut.api.validators -->
<g id="node6" class="node">
<title>yacut.api.validators</title>
<polygon fill="none" stroke="#000000" points="246.1549,-468 120.8915,-468 120.8915,-432 246.1549,-432 246.1549,-468"/>
<text text-anchor="middle" x="183.5232" y="-445.8" font-family="Times,serif" font-size="14.00" fill="#000000">yacut.api.validators</text>
</g>
<!-- yacut.api.utils&#45;&gt;yacut.api.validators -->
<g id="edge11" class="edge">
<title>yacut.api.utils-&gt;yacut.api.validators</title>
<path fill="none" stroke="#000000" d="M183.5232,-396.1686C183.5232,-403.869 183.5232,-413.0257 183.5232,-421.5834"/>
<polygon fill="#000000" stroke="#000000" points="183.5232,-431.5867 179.0233,-421.5867 183.5232,-426.5867 183.5233,-421.5867 183.5233,-421.5867 183.5233,-421.5867 183.5232,-426.5867 188.0233,-421.5868 183.5232,-431.5867 183.5232,-431.5867"/>
</g>
<!-- yacut.api.utils&#45;&gt;yacut.models -->
<g id="edge12" class="edge">
<title>yacut.api.utils-&gt;yacut.models</title>
<path fill="none" stroke="#000000" d="M211.7288,-396.2423C225.6919,-405.9723 242.3364,-418.6707 255.5232,-432 274.6986,-451.3827 292.7347,-476.6494 305.0904,-495.4754"/>
<polygon fill="#000000" stroke="#000000" points="310.5153,-503.8864 301.3134,-497.9218 307.8052,-499.6845 305.095,-495.4827 305.095,-495.4827 305.095,-495.4827 307.8052,-499.6845 308.8767,-493.0436 310.5153,-503.8864 310.5153,-503.8864"/>
</g>
<!-- yacut.api.utils&#45;&gt;yacut.settings -->
<g id="edge13" class="edge">
<title>yacut.api.utils-&gt;yacut.settings</title>
<path fill="none" stroke="#000000" d="M147.7508,-396.0082C132.5091,-405.1088 115.5165,-417.3472 103.5232,-432 71.9696,-470.5506 41.6841,-501.6849 73.5232,-540 102.5955,-574.9854 230.9637,-587.4191 306.821,-591.7528"/>
<polygon fill="#000000" stroke="#000000" points="317.1605,-592.312 306.932,-596.2653 312.1678,-592.042 307.1751,-591.7719 307.1751,-591.7719 307.1751,-591.7719 312.1678,-592.042 307.4182,-587.2784 317.1605,-592.312 317.1605,-592.312"/>
</g>
<!-- yacut.api.validators&#45;&gt;yacut.api.exceptions -->
<g id="edge14" class="edge">
<title>yacut.api.validators-&gt;yacut.api.exceptions</title>
<path fill="none" stroke="#000000" d="M174.4389,-468.1686C170.4617,-476.1229 165.7077,-485.631 161.3093,-494.4277"/>
<polygon fill="#000000" stroke="#000000" points="156.7298,-503.5867 157.1771,-492.63 158.9659,-499.1146 161.202,-494.6425 161.202,-494.6425 161.202,-494.6425 158.9659,-499.1146 165.227,-496.6549 156.7298,-503.5867 156.7298,-503.5867"/>
</g>
<!-- yacut.api.validators&#45;&gt;yacut.models -->
<g id="edge15" class="edge">
<title>yacut.api.validators-&gt;yacut.models</title>
<path fill="none" stroke="#000000" d="M218.3464,-468.1686C236.3243,-477.5484 258.4435,-489.0888 277.5848,-499.0756"/>
<polygon fill="#000000" stroke="#000000" points="286.7111,-503.8372 275.7637,-503.2011 282.2782,-501.5243 277.8453,-499.2115 277.8453,-499.2115 277.8453,-499.2115 282.2782,-501.5243 279.9268,-495.2218 286.7111,-503.8372 286.7111,-503.8372"/>
</g>
<!-- yacut.api.validators&#45;&gt;yacut.settings -->
<g id="edge16" class="edge">
<title>yacut.api.validators-&gt;yacut.settings</title>
<path fill="none" stroke="#000000" d="M197.594,-468.1239C213.2418,-487.4956 239.9646,-518.3397 267.5232,-540 282.3533,-551.656 300.0078,-562.3468 316.1083,-571.0857"/>
<polygon fill="#000000" stroke="#000000" points="325.3753,-575.998 314.4323,-575.2904 320.9576,-573.6562 316.5399,-571.3144 316.5399,-571.3144 316.5399,-571.3144 320.9576,-573.6562 318.6475,-567.3385 325.3753,-575.998 325.3753,-575.998"/>
</g>
<!-- yacut.api.views&#45;&gt;yacut -->
<g id="edge17" class="edge">
<title>yacut.api.views-&gt;yacut</title>
<path fill="none" stroke="#000000" d="M228.6415,-287.5631C236.5823,-277.1539 246.6531,-263.8868 255.5232,-252 271.3572,-230.781 289.0911,-206.5731 302.1859,-188.6121"/>
<polygon fill="#000000" stroke="#000000" points="308.2129,-180.3372 305.9629,-191.0698 305.2692,-184.3788 302.3255,-188.4205 302.3255,-188.4205 302.3255,-188.4205 305.2692,-184.3788 298.688,-185.7711 308.2129,-180.3372 308.2129,-180.3372"/>
</g>
<!-- yacut.api.views&#45;&gt;yacut.api.utils -->
<g id="edge18" class="edge">
<title>yacut.api.views-&gt;yacut.api.utils</title>
<path fill="none" stroke="#000000" d="M206.7006,-324.1686C203.3123,-332.0383 199.2691,-341.4288 195.5156,-350.1467"/>
<polygon fill="#000000" stroke="#000000" points="191.4511,-359.5867 191.2726,-348.6223 193.4285,-354.9943 195.4058,-350.4019 195.4058,-350.4019 195.4058,-350.4019 193.4285,-354.9943 199.539,-352.1815 191.4511,-359.5867 191.4511,-359.5867"/>
</g>
<!-- yacut.models&#45;&gt;yacut -->
<g id="edge19" class="edge">
<title>yacut.models-&gt;yacut</title>
<path fill="none" stroke="#000000" d="M327.3422,-503.8146C330.5232,-476.4983 330.5232,-423.25 330.5232,-378 330.5232,-306 330.5232,-306 330.5232,-306 330.5232,-265.876 330.5232,-219.4631 328.3054,-190.4177"/>
<polygon fill="#000000" stroke="#000000" points="327.3422,-180.1854 332.7597,-189.7196 327.8109,-185.1634 328.2795,-190.1414 328.2795,-190.1414 328.2795,-190.1414 327.8109,-185.1634 323.7993,-190.5631 327.3422,-180.1854 327.3422,-180.1854"/>
</g>
<!-- yacut.models&#45;&gt;yacut.settings -->
<g id="edge20" class="edge">
<title>yacut.models-&gt;yacut.settings</title>
<path fill="none" stroke="#000000" d="M332.1216,-540.1686C336.8109,-548.2075 342.426,-557.8334 347.603,-566.7082"/>
<polygon fill="#000000" stroke="#000000" points="352.7821,-575.5867 343.8564,-569.2164 350.2627,-571.2678 347.7434,-566.9489 347.7434,-566.9489 347.7434,-566.9489 350.2627,-571.2678 351.6304,-564.6815 352.7821,-575.5867 352.7821,-575.5867"/>
</g>
<!-- yacut.web -->
<g id="node10" class="node">
<title>yacut.web</title>
<polygon fill="none" stroke="#000000" points="533.1643,-36 459.8821,-36 459.8821,0 533.1643,0 533.1643,-36"/>
<text text-anchor="middle" x="496.5232" y="-13.8" font-family="Times,serif" font-size="14.00" fill="#000000">yacut.web</text>
</g>
<!-- yacut.web&#45;&gt;yacut.web -->
<g id="edge21" class="edge">
<title>yacut.web-&gt;yacut.web</title>
<path fill="none" stroke="#000000" d="M533.2495,-4.5824C543.3642,-5.2306 551.0937,-9.7031 551.0937,-18 551.0937,-23.1855 548.0744,-26.8772 543.3404,-29.075"/>
<polygon fill="#000000" stroke="#000000" points="533.2495,-31.4176 541.9728,-24.7727 538.1199,-30.2869 542.9904,-29.1562 542.9904,-29.1562 542.9904,-29.1562 538.1199,-30.2869 544.0081,-33.5396 533.2495,-31.4176 533.2495,-31.4176"/>
</g>
<!-- yacut.web.errorhandlers -->
<g id="node11" class="node">
<title>yacut.web.errorhandlers</title>
<polygon fill="none" stroke="#000000" points="498.2858,-108 346.7606,-108 346.7606,-72 498.2858,-72 498.2858,-108"/>
<text text-anchor="middle" x="422.5232" y="-85.8" font-family="Times,serif" font-size="14.00" fill="#000000">yacut.web.errorhandlers</text>
</g>
<!-- yacut.web&#45;&gt;yacut.web.errorhandlers -->
<g id="edge22" class="edge">
<title>yacut.web-&gt;yacut.web.errorhandlers</title>
<path fill="none" stroke="#000000" d="M477.8499,-36.1686C468.9983,-44.781 458.2746,-55.2149 448.6337,-64.5952"/>
<polygon fill="#000000" stroke="#000000" points="441.1906,-71.8372 445.2197,-61.6383 444.7742,-68.3504 448.3578,-64.8636 448.3578,-64.8636 448.3578,-64.8636 444.7742,-68.3504 451.4959,-68.0889 441.1906,-71.8372 441.1906,-71.8372"/>
</g>
<!-- yacut.web.views -->
<g id="node15" class="node">
<title>yacut.web.views</title>
<polygon fill="none" stroke="#000000" points="625.321,-108 515.7254,-108 515.7254,-72 625.321,-72 625.321,-108"/>
<text text-anchor="middle" x="570.5232" y="-85.8" font-family="Times,serif" font-size="14.00" fill="#000000">yacut.web.views</text>
</g>
<!-- yacut.web&#45;&gt;yacut.web.views -->
<g id="edge23" class="edge">
<title>yacut.web-&gt;yacut.web.views</title>
<path fill="none" stroke="#000000" d="M515.1965,-36.1686C524.0481,-44.781 534.7718,-55.2149 544.4127,-64.5952"/>
<polygon fill="#000000" stroke="#000000" points="551.8558,-71.8372 541.5505,-68.0889 548.2722,-68.3504 544.6886,-64.8636 544.6886,-64.8636 544.6886,-64.8636 548.2722,-68.3504 547.8267,-61.6383 551.8558,-71.8372 551.8558,-71.8372"/>
</g>
<!-- yacut.web.errorhandlers&#45;&gt;yacut -->
<g id="edge24" class="edge">
<title>yacut.web.errorhandlers-&gt;yacut</title>
<path fill="none" stroke="#000000" d="M397.0366,-108.1686C384.3573,-117.2073 368.8636,-128.2524 355.2177,-137.9802"/>
<polygon fill="#000000" stroke="#000000" points="347.0016,-143.8372 352.5323,-134.3681 351.073,-140.9348 355.1444,-138.0324 355.1444,-138.0324 355.1444,-138.0324 351.073,-140.9348 357.7566,-141.6966 347.0016,-143.8372 347.0016,-143.8372"/>
</g>
<!-- yacut.web.exceptions -->
<g id="node12" class="node">
<title>yacut.web.exceptions</title>
<polygon fill="none" stroke="#000000" points="532.5347,-252 396.5117,-252 396.5117,-216 532.5347,-216 532.5347,-252"/>
<text text-anchor="middle" x="464.5232" y="-229.8" font-family="Times,serif" font-size="14.00" fill="#000000">yacut.web.exceptions</text>
</g>
<!-- yacut.web.errorhandlers&#45;&gt;yacut.web.exceptions -->
<g id="edge25" class="edge">
<title>yacut.web.errorhandlers-&gt;yacut.web.exceptions</title>
<path fill="none" stroke="#000000" d="M427.8425,-108.2377C435.0378,-132.9072 447.9391,-177.1402 456.3644,-206.0269"/>
<polygon fill="#000000" stroke="#000000" points="459.2471,-215.9104 452.127,-207.5704 457.847,-211.1104 456.447,-206.3104 456.447,-206.3104 456.447,-206.3104 457.847,-211.1104 460.767,-205.0503 459.2471,-215.9104 459.2471,-215.9104"/>
</g>
<!-- yacut.web.forms -->
<g id="node13" class="node">
<title>yacut.web.forms</title>
<polygon fill="none" stroke="#000000" points="698.321,-252 588.7254,-252 588.7254,-216 698.321,-216 698.321,-252"/>
<text text-anchor="middle" x="643.5232" y="-229.8" font-family="Times,serif" font-size="14.00" fill="#000000">yacut.web.forms</text>
</g>
<!-- yacut.web.forms&#45;&gt;yacut.settings -->
<g id="edge26" class="edge">
<title>yacut.web.forms-&gt;yacut.settings</title>
<path fill="none" stroke="#000000" d="M631.155,-252.1834C614.3909,-278.6452 586.5232,-329.8717 586.5232,-378 586.5232,-378 586.5232,-378 586.5232,-450 586.5232,-529.3418 485.6676,-567.094 419.6088,-583.3117"/>
<polygon fill="#000000" stroke="#000000" points="409.7289,-585.6417 418.429,-578.9664 414.5954,-584.494 419.4619,-583.3463 419.4619,-583.3463 419.4619,-583.3463 414.5954,-584.494 420.4949,-587.7261 409.7289,-585.6417 409.7289,-585.6417"/>
</g>
<!-- yacut.web.handlers -->
<g id="node14" class="node">
<title>yacut.web.handlers</title>
<polygon fill="none" stroke="#000000" points="618.5892,-180 494.4572,-180 494.4572,-144 618.5892,-144 618.5892,-180"/>
<text text-anchor="middle" x="556.5232" y="-157.8" font-family="Times,serif" font-size="14.00" fill="#000000">yacut.web.handlers</text>
</g>
<!-- yacut.web.handlers&#45;&gt;yacut.models -->
<g id="edge27" class="edge">
<title>yacut.web.handlers-&gt;yacut.models</title>
<path fill="none" stroke="#000000" d="M556.2155,-180.0333C555.2905,-198.7861 552.0907,-228.6152 541.5232,-252 494.7037,-355.607 397.974,-452.6779 349.911,-496.9191"/>
<polygon fill="#000000" stroke="#000000" points="342.3534,-503.8086 346.7119,-493.7461 346.0485,-500.4402 349.7436,-497.0717 349.7436,-497.0717 349.7436,-497.0717 346.0485,-500.4402 352.7752,-500.3972 342.3534,-503.8086 342.3534,-503.8086"/>
</g>
<!-- yacut.web.handlers&#45;&gt;yacut.web.exceptions -->
<g id="edge28" class="edge">
<title>yacut.web.handlers-&gt;yacut.web.exceptions</title>
<path fill="none" stroke="#000000" d="M533.3077,-180.1686C521.9762,-189.0368 508.1768,-199.8363 495.9205,-209.4282"/>
<polygon fill="#000000" stroke="#000000" points="487.7313,-215.8372 492.8329,-206.1303 491.6688,-212.7556 495.6063,-209.6741 495.6063,-209.6741 495.6063,-209.6741 491.6688,-212.7556 498.3797,-213.2178 487.7313,-215.8372 487.7313,-215.8372"/>
</g>
<!-- yacut.web.handlers&#45;&gt;yacut.web.forms -->
<g id="edge29" class="edge">
<title>yacut.web.handlers-&gt;yacut.web.forms</title>
<path fill="none" stroke="#000000" d="M578.477,-180.1686C589.1927,-189.0368 602.2421,-199.8363 613.8322,-209.4282"/>
<polygon fill="#000000" stroke="#000000" points="621.5765,-215.8372 611.0034,-212.9282 617.7245,-212.6493 613.8725,-209.4615 613.8725,-209.4615 613.8725,-209.4615 617.7245,-212.6493 616.7416,-205.9947 621.5765,-215.8372 621.5765,-215.8372"/>
</g>
<!-- yacut.web.views&#45;&gt;yacut -->
<g id="edge30" class="edge">
<title>yacut.web.views-&gt;yacut</title>
<path fill="none" stroke="#000000" d="M515.5708,-105.8898C467.8072,-119.701 399.9359,-139.3264 358.4174,-151.3318"/>
<polygon fill="#000000" stroke="#000000" points="348.711,-154.1385 357.0675,-147.0377 353.5143,-152.7495 358.3175,-151.3606 358.3175,-151.3606 358.3175,-151.3606 353.5143,-152.7495 359.5675,-155.6835 348.711,-154.1385 348.711,-154.1385"/>
</g>
<!-- yacut.web.views&#45;&gt;yacut.settings -->
<g id="edge31" class="edge">
<title>yacut.web.views-&gt;yacut.settings</title>
<path fill="none" stroke="#000000" d="M614.8093,-108.1931C660.9297,-130.432 726.5232,-172.8158 726.5232,-234 726.5232,-234 726.5232,-234 726.5232,-450 726.5232,-515.2034 521.6013,-563.7173 419.6926,-583.8121"/>
<polygon fill="#000000" stroke="#000000" points="409.8661,-585.7246 418.8222,-579.397 414.774,-584.7694 419.6819,-583.8141 419.6819,-583.8141 419.6819,-583.8141 414.774,-584.7694 420.5416,-588.2312 409.8661,-585.7246 409.8661,-585.7246"/>
</g>
<!-- yacut.web.views&#45;&gt;yacut.web.forms -->
<g id="edge32" class="edge">
<title>yacut.web.views-&gt;yacut.web.forms</title>
<path fill="none" stroke="#000000" d="M595.9974,-108.0537C607.4024,-117.4733 619.9585,-129.9593 627.5232,-144 637.7168,-162.9202 641.603,-187.008 643.0025,-205.5017"/>
<polygon fill="#000000" stroke="#000000" points="643.568,-215.6628 638.5192,-205.9283 643.2901,-210.6705 643.0123,-205.6782 643.0123,-205.6782 643.0123,-205.6782 643.2901,-210.6705 647.5053,-205.4281 643.568,-215.6628 643.568,-215.6628"/>
</g>
<!-- yacut.web.views&#45;&gt;yacut.web.handlers -->
<g id="edge33" class="edge">
<title>yacut.web.views-&gt;yacut.web.handlers</title>
<path fill="none" stroke="#000000" d="M566.9904,-108.1686C565.4931,-115.869 563.7127,-125.0257 562.0487,-133.5834"/>
<polygon fill="#000000" stroke="#000000" points="560.1036,-143.5867 557.5951,-132.9116 561.0579,-138.6787 562.0123,-133.7706 562.0123,-133.7706 562.0123,-133.7706 561.0579,-138.6787 566.4296,-134.6295 560.1036,-143.5867 560.1036,-143.5867"/>
</g>
</g>
</svg>