<?xml version="1.0" encoding="UTF-8" standalone="no"?>
<!DOCTYPE svg PUBLIC "-//W3C//DTD SVG 1.1//EN" "http://www.w3.org/Graphics/SVG/1.1/DTD/svg11.dtd">
<!-- Generated by graphviz version 2.40.1 (20161225.0304)
 -->
<!-- Title: packages Pages: 1 -->
<svg width="696pt" height="404pt" viewBox="0.00 0.00 695.52 404.00" xmlns="http://www.w3.org/2000/svg" xmlns:xlink="http://www.w3.org/1999/xlink">
<g id="graph0" class="graph" transform="scale(1 1) rotate(0) translate(4 400)">
<title>packages</title>
<polygon fill="#ffffff" stroke="transparent" points="-4,4 -4,-400 691.5232,-400 691.5232,4 -4,4"/>
<!-- yacut -->
<g id="node1" class="node">
<title>yacut</title>
<polygon fill="none" stroke="#000000" points="370.5232,-36 316.5232,-36 316.5232,0 370.5232,0 370.5232,-36"/>
<text text-anchor="middle" x="343.5232" y="-13.8" font-family="Times,serif" font-size="14.00" fill="#000000">yacut</text>
</g>
<!-- yacut&#45;&gt;yacut -->
<g id="edge1" class="edge">
<title>yacut-&gt;yacut</title>
<path fill="none" stroke="#000000" d="M370.764,-4.5132C380.5471,-4.2231 388.5232,-8.7188 388.5232,-18 388.5232,-23.8008 385.4075,-27.7322 380.6823,-29.7942"/>
<polygon fill="#000000" stroke="#000000" points="370.764,-31.4868 379.8644,-25.3686 375.6927,-30.6456 380.6215,-29.8045 380.6215,-29.8045 380.6215,-29.8045 375.6927,-30.6456 381.3785,-34.2403 370.764,-31.4868 370.764,-31.4868"/>
</g>
<!-- yacut.api -->
<g id="node2" class="node">
<title>yacut.api</title>
<polygon fill="none" stroke="#000000" points="247.9482,-108 181.0982,-108 181.0982,-72 247.9482,-72 247.9482,-108"/>
<text text-anchor="middle" x="214.5232" y="-85.8" font-family="Times,serif" font-size="14.00" fill="#000000">yacut.api</text>
</g>
<!-- yacut&#45;&gt;yacut.api -->
<g id="edge2" class="edge">
<title>yacut-&gt;yacut.api</title>
<path fill="none" stroke="#000000" d="M316.4806,-33.0936C298.9258,-42.8916 275.7061,-55.8514 255.8601,-66.9282"/>
<polygon fill="#000000" stroke="#000000" points="247.0116,-71.867 253.5504,-63.0638 251.3776,-69.4301 255.7436,-66.9932 255.7436,-66.9932 255.7436,-66.9932 251.3776,-69.4301 257.9367,-70.9226 247.0116,-71.867 247.0116,-71.867"/>
</g>
<!-- yacut.models -->
<g id="node7" class="node">
<title>yacut.models</title>
<polygon fill="none" stroke="#000000" points="392.7838,-324 302.2626,-324 302.2626,-288 392.7838,-288 392.7838,-324"/>
<text text-anchor="middle" x="347.5232" y="-301.8" font-family="Times,serif" font-size="14.00" fill="#000000">yacut.models</text>
</g>
<!-- yacut&#45;&gt;yacut.models -->
<g id="edge3" class="edge">
<title>yacut-&gt;yacut.models</title>
<path fill="none" stroke="#000000" d="M340.2868,-36.0157C336.8667,-84.7061 338.4948,-219.2039 342.9273,-277.9427"/>
<polygon fill="#000000" stroke="#000000" points="343.787,-287.9911 338.4509,-278.4112 343.3607,-283.0093 342.9345,-278.0275 342.9345,-278.0275 342.9345,-278.0275 343.3607,-283.0093 347.4181,-277.6439 343.787,-287.9911 343.787,-287.9911"/>
</g>
<!-- yacut.settings -->
<g id="node8" class="node">
<title>yacut.settings</title>
<polygon fill="none" stroke="#000000" points="435.6195,-396 343.4269,-396 343.4269,-360 435.6195,-360 435.6195,-396"/>
<text text-anchor="middle" x="389.5232" y="-373.8" font-family="Times,serif" font-size="14.00" fill="#000000">yacut.settings</text>
</g>
<!-- yacut&#45;&gt;yacut.settings -->
<g id="edge4" class="edge">
<title>yacut-&gt;yacut.settings</title>
<path fill="none" stroke="#000000" d="M370.8038,-23.2757C452.1672,-39.7818 687.5232,-93.4526 687.5232,-162 687.5232,-162 687.5232,-162 687.5232,-234 687.5232,-296.482 634.7754,-294.8249 579.5232,-324 537.3502,-346.2688 484.9251,-360.2791 445.8331,-368.4317"/>
<polygon fill="#000000" stroke="#000000" points="435.6893,-370.4787 444.6015,-364.0895 440.5905,-369.4896 445.4917,-368.5006 445.4917,-368.5006 445.4917,-368.5006 440.5905,-369.4896 446.3819,-372.9116 435.6893,-370.4787 435.6893,-370.4787"/>
</g>
<!-- yacut.web -->
<g id="node9" class="node">
<title>yacut.web</title>
<polygon fill="none" stroke="#000000" points="492.1643,-108 418.8821,-108 418.8821,-72 492.1643,-72 492.1643,-108"/>
<text text-anchor="middle" x="455.5232" y="-85.8" font-family="Times,serif" font-size="14.00" fill="#000000">yacut.web</text>
</g>
<!-- yacut&#45;&gt;yacut.web -->
<g id="edge5" class="edge">
<title>yacut-&gt;yacut.web</title>
<path fill="none" stroke="#000000" d="M370.6353,-35.4292C385.1653,-44.7699 403.2683,-56.4076 419.0199,-66.5336"/>
<polygon fill="#000000" stroke="#000000" points="427.4912,-71.9794 416.6459,-70.3571 423.2853,-69.2756 419.0794,-66.5718 419.0794,-66.5718 419.0794,-66.5718 423.2853,-69.2756 421.5128,-62.7865 427.4912,-71.9794 427.4912,-71.9794"/>
</g>
<!-- yacut.api&#45;&gt;yacut.api -->
<g id="edge6" class="edge">
<title>yacut.api-&gt;yacut.api</title>
<path fill="none" stroke="#000000" d="M248.1802,-76.5297C258.1939,-76.9318 265.9857,-81.4219 265.9857,-90 265.9857,-95.3613 262.942,-99.1258 258.2145,-101.2933"/>
<polygon fill="#000000" stroke="#000000" points="248.1802,-103.4703 256.9987,-96.9524 253.0665,-102.4102 257.9528,-101.35 257.9528,-101.35 257.9528,-101.35 253.0665,-102.4102 258.9069,-105.7477 248.1802,-103.4703 248.1802,-103.4703"/>
</g>
<!-- yacut.api.errorhandlers -->
<g id="node3" class="node">
<title>yacut.api.errorhandlers</title>
<polygon fill="none" stroke="#000000" points="145.0696,-180 -.0232,-180 -.0232,-144 145.0696,-144 145.0696,-180"/>
<text text-anchor="middle" x="72.5232" y="-157.8" font-family="Times,serif" font-size="14.00" fill="#000000">yacut.api.errorhandlers</text>
</g>
<!-- yacut.api&#45;&gt;yacut.api.errorhandlers -->
<g id="edge7" class="edge">
<title>yacut.api-&gt;yacut.api.errorhandlers</title>
<path fill="none" stroke="#000000" d="M180.8712,-107.063C161.8817,-116.6915 137.9093,-128.8465 117.3442,-139.2738"/>
<polygon fill="#000000" stroke="#000000" points="108.1654,-143.9279 115.0493,-135.392 112.6249,-141.6667 117.0844,-139.4056 117.0844,-139.4056 117.0844,-139.4056 112.6249,-141.6667 119.1194,-143.4191 108.1654,-143.9279 108.1654,-143.9279"/>
</g>
<!-- yacut.api.views -->
<g id="node6" class="node">
<title>yacut.api.views</title>
<polygon fill="none" stroke="#000000" points="266.1046,-180 162.9418,-180 162.9418,-144 266.1046,-144 266.1046,-180"/>
<text text-anchor="middle" x="214.5232" y="-157.8" font-family="Times,serif" font-size="14.00" fill="#000000">yacut.api.views</text>
</g>
<!-- yacut.api&#45;&gt;yacut.api.views -->
<g id="edge8" class="edge">
<title>yacut.api-&gt;yacut.api.views</title>
<path fill="none" stroke="#000000" d="M214.5232,-108.1686C214.5232,-115.869 214.5232,-125.0257 214.5232,-133.5834"/>
<polygon fill="#000000" stroke="#000000" points="214.5232,-143.5867 210.0233,-133.5867 214.5232,-138.5867 214.5233,-133.5867 214.5233,-133.5867 214.5233,-133.5867 214.5232,-138.5867 219.0233,-133.5868 214.5232,-143.5867 214.5232,-143.5867"/>
</g>
<!-- yacut.api.errorhandlers&#45;&gt;yacut -->
<g id="edge9" class="edge">
<title>yacut.api.errorhandlers-&gt;yacut</title>
<path fill="none" stroke="#000000" d="M88.1003,-143.9496C106.4226,-123.7605 138.6603,-91.3593 172.5232,-72 215.203,-47.6002 270.2942,-32.7553 306.2454,-24.9616"/>
<polygon fill="#000000" stroke="#000000" points="316.3021,-22.8573 307.4357,-29.3101 311.4081,-23.8814 306.514,-24.9055 306.514,-24.9055 306.514,-24.9055 311.4081,-23.8814 305.5924,-20.5009 316.3021,-22.8573 316.3021,-22.8573"/>
</g>
<!-- yacut.api.exceptions -->
<g id="node4" class="node">
<title>yacut.api.exceptions</title>
<polygon fill="none" stroke="#000000" points="238.8181,-324 108.2283,-324 108.2283,-288 238.8181,-288 238.8181,-324"/>
<text text-anchor="middle" x="173.5232" y="-301.8" font-family="Times,serif" font-size="14.00" fill="#000000">yacut.api.exceptions</text>
</g>
<!-- yacut.api.errorhandlers&#45;&gt;yacut.api.exceptions -->
<g id="edge10" class="edge">
<title>yacut.api.errorhandlers-&gt;yacut.api.exceptions</title>
<path fill="none" stroke="#000000" d="M83.0567,-180.0007C94.0631,-198.4694 112.1215,-227.8369 129.5232,-252 136.2713,-261.37 144.1067,-271.2627 151.2795,-279.9845"/>
<polygon fill="#000000" stroke="#000000" points="157.8965,-287.9327 148.0399,-283.1265 154.6974,-284.09 151.4983,-280.2474 151.4983,-280.2474 151.4983,-280.2474 154.6974,-284.09 154.9567,-277.3682 157.8965,-287.9327 157.8965,-287.9327"/>
</g>
<!-- yacut.api.validators -->
<g id="node5" class="node">
<title>yacut.api.validators</title>
<polygon fill="none" stroke="#000000" points="272.1549,-252 146.8915,-252 146.8915,-216 272.1549,-216 272.1549,-252"/>
<text text-anchor="middle" x="209.5232" y="-229.8" font-family="Times,serif" font-size="14.00" fill="#000000">yacut.api.validators</text>
</g>
<!-- yacut.api.validators&#45;&gt;yacut.api.exceptions -->
<g id="edge11" class="edge">
<title>yacut.api.validators-&gt;yacut.api.exceptions</title>
<path fill="none" stroke="#000000" d="M200.4389,-252.1686C196.4617,-260.1229 191.7077,-269.631 187.3093,-278.4277"/>
<polygon fill="#000000" stroke="#000000" points="182.7298,-287.5867 183.1771,-276.63 184.9659,-283.1146 187.202,-278.6425 187.202,-278.6425 187.202,-278.6425 184.9659,-283.1146 191.227,-280.6549 182.7298,-287.5867 182.7298,-287.5867"/>
</g>
<!-- yacut.api.validators&#45;&gt;yacut.models -->
<g id="edge12" class="edge">
<title>yacut.api.validators-&gt;yacut.models</title>
<path fill="none" stroke="#000000" d="M244.3464,-252.1686C262.3243,-261.5484 284.4435,-273.0888 303.5848,-283.0756"/>
<polygon fill="#000000" stroke="#000000" points="312.7111,-287.8372 301.7637,-287.2011 308.2782,-285.5243 303.8453,-283.2115 303.8453,-283.2115 303.8453,-283.2115 308.2782,-285.5243 305.9268,-279.2218 312.7111,-287.8372 312.7111,-287.8372"/>
</g>
<!-- yacut.api.validators&#45;&gt;yacut.settings -->
<g id="edge13" class="edge">
<title>yacut.api.validators-&gt;yacut.settings</title>
<path fill="none" stroke="#000000" d="M223.594,-252.1239C239.2418,-271.4956 265.9646,-302.3397 293.5232,-324 308.3533,-335.656 326.0078,-346.3468 342.1083,-355.0857"/>
<polygon fill="#000000" stroke="#000000" points="351.3753,-359.998 340.4323,-359.2904 346.9576,-357.6562 342.5399,-355.3144 342.5399,-355.3144 342.5399,-355.3144 346.9576,-357.6562 344.6475,-351.3385 351.3753,-359.998 351.3753,-359.998"/>
</g>
<!-- yacut.api.views&#45;&gt;yacut -->
<g id="edge14" class="edge">
<title>yacut.api.views-&gt;yacut</title>
<path fill="none" stroke="#000000" d="M236.5215,-143.9138C248.2828,-133.8301 262.7285,-120.7619 274.5232,-108 293.2119,-87.7788 312.0738,-62.7916 325.3422,-44.2805"/>
<polygon fill="#000000" stroke="#000000" points="331.2024,-36.0176 329.0879,-46.7777 328.3099,-40.096 325.4174,-44.1744 325.4174,-44.1744 325.4174,-44.1744 328.3099,-40.096 321.7468,-41.5712 331.2024,-36.0176 331.2024,-36.0176"/>
</g>
<!-- yacut.api.views&#45;&gt;yacut.api.exceptions -->
<g id="edge15" class="edge">
<title>yacut.api.views-&gt;yacut.api.exceptions</title>
<path fill="none" stroke="#000000" d="M174.4205,-180.0774C160.0833,-188.7479 145.5093,-200.6452 137.5232,-216 126.7794,-236.6571 138.1647,-261.2746 150.8973,-279.5376"/>
<polygon fill="#000000" stroke="#000000" points="157.165,-287.9474 147.581,-282.6184 154.1771,-283.9383 151.1892,-279.9293 151.1892,-279.9293 151.1892,-279.9293 154.1771,-283.9383 154.7973,-277.2401 157.165,-287.9474 157.165,-287.9474"/>
</g>
<!-- yacut.api.views&#45;&gt;yacut.api.validators -->
<g id="edge16" class="edge">
<title>yacut.api.views-&gt;yacut.api.validators</title>
<path fill="none" stroke="#000000" d="M213.2615,-180.1686C212.7267,-187.869 212.0909,-197.0257 211.4966,-205.5834"/>
<polygon fill="#000000" stroke="#000000" points="210.8019,-215.5867 207.0056,-205.299 211.1483,-210.5987 211.4948,-205.6108 211.4948,-205.6108 211.4948,-205.6108 211.1483,-210.5987 215.984,-205.9225 210.8019,-215.5867 210.8019,-215.5867"/>
</g>
<!-- yacut.api.views&#45;&gt;yacut.models -->
<g id="edge17" class="edge">
<title>yacut.api.views-&gt;yacut.models</title>
<path fill="none" stroke="#000000" d="M240.0279,-180.0648C253.1259,-189.9396 268.9325,-202.8214 281.5232,-216 300.1575,-235.5044 318.0434,-260.4119 330.4838,-279.0775"/>
<polygon fill="#000000" stroke="#000000" points="336.133,-287.6881 326.8849,-281.7954 333.3902,-283.5075 330.6475,-279.3269 330.6475,-279.3269 330.6475,-279.3269 333.3902,-283.5075 334.41,-276.8584 336.133,-287.6881 336.133,-287.6881"/>
</g>
<!-- yacut.api.views&#45;&gt;yacut.settings -->
<g id="edge18" class="edge">
<title>yacut.api.views-&gt;yacut.settings</title>
<path fill="none" stroke="#000000" d="M175.6358,-180.0597C159.6625,-189.0311 142.0222,-201.1549 129.5232,-216 97.4372,-254.1086 67.6841,-285.6849 99.5232,-324 128.5955,-358.9854 256.9637,-371.4191 332.821,-375.7528"/>
<polygon fill="#000000" stroke="#000000" points="343.1605,-376.312 332.932,-380.2653 338.1678,-376.042 333.1751,-375.7719 333.1751,-375.7719 333.1751,-375.7719 338.1678,-376.042 333.4182,-371.2784 343.1605,-376.312 343.1605,-376.312"/>
</g>
<!-- yacut.models&#45;&gt;yacut -->
<g id="edge19" class="edge">
<title>yacut.models-&gt;yacut</title>
<path fill="none" stroke="#000000" d="M350.7592,-287.9911C354.1797,-239.3088 352.5519,-104.8114 348.1197,-46.0655"/>
<polygon fill="#000000" stroke="#000000" points="347.2601,-36.0157 352.5961,-45.5957 347.6862,-40.9975 348.1124,-45.9793 348.1124,-45.9793 348.1124,-45.9793 347.6862,-40.9975 343.6288,-46.3629 347.2601,-36.0157 347.2601,-36.0157"/>
</g>
<!-- yacut.models&#45;&gt;yacut.settings -->
<g id="edge20" class="edge">
<title>yacut.models-&gt;yacut.settings</title>
<path fill="none" stroke="#000000" d="M358.1216,-324.1686C362.8109,-332.2075 368.426,-341.8334 373.603,-350.7082"/>
<polygon fill="#000000" stroke="#000000" points="378.7821,-359.5867 369.8564,-353.2164 376.2627,-355.2678 373.7434,-350.9489 373.7434,-350.9489 373.7434,-350.9489 376.2627,-355.2678 377.6304,-348.6815 378.7821,-359.5867 378.7821,-359.5867"/>
</g>
<!-- yacut.web&#45;&gt;yacut.web -->
<g id="edge21" class="edge">
<title>yacut.web-&gt;yacut.web</title>
<path fill="none" stroke="#000000" d="M492.2495,-76.5824C502.3642,-77.2306 510.0937,-81.7031 510.0937,-90 510.0937,-95.1855 507.0744,-98.8772 502.3404,-101.075"/>
<polygon fill="#000000" stroke="#000000" points="492.2495,-103.4176 500.9728,-96.7727 497.1199,-102.2869 501.9904,-101.1562 501.9904,-101.1562 501.9904,-101.1562 497.1199,-102.2869 503.0081,-105.5396 492.2495,-103.4176 492.2495,-103.4176"/>
</g>
<!-- yacut.web.errorhandlers -->
<g id="node10" class="node">
<title>yacut.web.errorhandlers</title>
<polygon fill="none" stroke="#000000" points="659.2858,-180 507.7606,-180 507.7606,-144 659.2858,-144 659.2858,-180"/>
<text text-anchor="middle" x="583.5232" y="-157.8" font-family="Times,serif" font-size="14.00" fill="#000000">yacut.web.errorhandlers</text>
</g>
<!-- yacut.web&#45;&gt;yacut.web.errorhandlers -->
<g id="edge22" class="edge">
<title>yacut.web-&gt;yacut.web.errorhandlers</title>
<path fill="none" stroke="#000000" d="M487.823,-108.1686C504.3466,-117.4632 524.6418,-128.8792 542.2839,-138.8029"/>
<polygon fill="#000000" stroke="#000000" points="551.2337,-143.8372 540.3118,-142.8566 546.8758,-141.3858 542.518,-138.9345 542.518,-138.9345 542.518,-138.9345 546.8758,-141.3858 544.7242,-135.0124 551.2337,-143.8372 551.2337,-143.8372"/>
</g>
<!-- yacut.web.views -->
<g id="node13" class="node">
<title>yacut.web.views</title>
<polygon fill="none" stroke="#000000" points="490.321,-180 380.7254,-180 380.7254,-144 490.321,-144 490.321,-180"/>
<text text-anchor="middle" x="435.5232" y="-157.8" font-family="Times,serif" font-size="14.00" fill="#000000">yacut.web.views</text>
</g>
<!-- yacut.web&#45;&gt;yacut.web.views -->
<g id="edge23" class="edge">
<title>yacut.web-&gt;yacut.web.views</title>
<path fill="none" stroke="#000000" d="M450.4764,-108.1686C448.3138,-115.9537 445.7379,-125.2271 443.3384,-133.8653"/>
<polygon fill="#000000" stroke="#000000" points="440.638,-143.5867 438.9787,-132.7471 441.9763,-138.7691 443.3145,-133.9516 443.3145,-133.9516 443.3145,-133.9516 441.9763,-138.7691 447.6503,-135.156 440.638,-143.5867 440.638,-143.5867"/>
</g>
<!-- yacut.web.errorhandlers&#45;&gt;yacut -->
<g id="edge24" class="edge">
<title>yacut.web.errorhandlers-&gt;yacut</title>
<path fill="none" stroke="#000000" d="M575.1095,-143.7245C564.8107,-123.3289 545.4858,-90.7386 519.5232,-72 477.712,-41.8227 418.7004,-28.2346 380.7735,-22.3117"/>
<polygon fill="#000000" stroke="#000000" points="370.6671,-20.837 381.2121,-17.8281 375.6147,-21.559 380.5623,-22.281 380.5623,-22.281 380.5623,-22.281 375.6147,-21.559 379.9125,-26.7338 370.6671,-20.837 370.6671,-20.837"/>
</g>
<!-- yacut.web.exceptions -->
<g id="node11" class="node">
<title>yacut.web.exceptions</title>
<polygon fill="none" stroke="#000000" points="646.5347,-252 510.5117,-252 510.5117,-216 646.5347,-216 646.5347,-252"/>
<text text-anchor="middle" x="578.5232" y="-229.8" font-family="Times,serif" font-size="14.00" fill="#000000">yacut.web.exceptions</text>
</g>
<!-- yacut.web.errorhandlers&#45;&gt;yacut.web.exceptions -->
<g id="edge25" class="edge">
<title>yacut.web.errorhandlers-&gt;yacut.web.exceptions</title>
<path fill="none" stroke="#000000" d="M582.2615,-180.1686C581.7267,-187.869 581.0909,-197.0257 580.4966,-205.5834"/>
<polygon fill="#000000" stroke="#000000" points="579.8019,-215.5867 576.0056,-205.299 580.1483,-210.5987 580.4948,-205.6108 580.4948,-205.6108 580.4948,-205.6108 580.1483,-210.5987 584.984,-205.9225 579.8019,-215.5867 579.8019,-215.5867"/>
</g>
<!-- yacut.web.forms -->
<g id="node12" class="node">
<title>yacut.web.forms</title>
<polygon fill="none" stroke="#000000" points="570.321,-324 460.7254,-324 460.7254,-288 570.321,-288 570.321,-324"/>
<text text-anchor="middle" x="515.5232" y="-301.8" font-family="Times,serif" font-size="14.00" fill="#000000">yacut.web.forms</text>
</g>
<!-- yacut.web.forms&#45;&gt;yacut.settings -->
<g id="edge26" class="edge">
<title>yacut.web.forms-&gt;yacut.settings</title>
<path fill="none" stroke="#000000" d="M483.7281,-324.1686C467.4627,-333.4632 447.4846,-344.8792 430.1181,-354.8029"/>
<polygon fill="#000000" stroke="#000000" points="421.3081,-359.8372 427.7579,-350.9686 425.6494,-357.3565 429.9906,-354.8757 429.9906,-354.8757 429.9906,-354.8757 425.6494,-357.3565 432.2232,-358.7828 421.3081,-359.8372 421.3081,-359.8372"/>
</g>
<!-- yacut.web.views&#45;&gt;yacut -->
<g id="edge27" class="edge">
<title>yacut.web.views-&gt;yacut</title>
<path fill="none" stroke="#000000" d="M423.9659,-143.9104C408.0484,-118.9959 379.2548,-73.9278 360.781,-45.0123"/>
<polygon fill="#000000" stroke="#000000" points="355.1751,-36.2377 364.3511,-42.2419 357.867,-40.4512 360.559,-44.6647 360.559,-44.6647 360.559,-44.6647 357.867,-40.4512 356.7669,-47.0874 355.1751,-36.2377 355.1751,-36.2377"/>
</g>
<!-- yacut.web.views&#45;&gt;yacut.models -->
<g id="edge28" class="edge">
<title>yacut.web.views-&gt;yacut.models</title>
<path fill="none" stroke="#000000" d="M424.3779,-180.2377C409.1038,-205.2318 381.5574,-250.3076 363.926,-279.1591"/>
<polygon fill="#000000" stroke="#000000" points="358.578,-287.9104 359.9527,-277.031 361.1852,-283.644 363.7925,-279.3776 363.7925,-279.3776 363.7925,-279.3776 361.1852,-283.644 367.6323,-281.7241 358.578,-287.9104 358.578,-287.9104"/>
</g>
<!-- yacut.web.views&#45;&gt;yacut.settings -->
<g id="edge29" class="edge">
<title>yacut.web.views-&gt;yacut.settings</title>
<path fill="none" stroke="#000000" d="M431.7187,-180.4794C425.5065,-210.5735 412.75,-272.0341 401.5232,-324 399.7265,-332.3164 397.7362,-341.344 395.9015,-349.5944"/>
<polygon fill="#000000" stroke="#000000" points="393.687,-359.5174 391.4732,-348.7774 394.7761,-354.6375 395.8652,-349.7575 395.8652,-349.7575 395.8652,-349.7575 394.7761,-354.6375 400.2571,-350.7377 393.687,-359.5174 393.687,-359.5174"/>
</g>
<!-- yacut.web.views&#45;&gt;yacut.web.exceptions -->
<g id="edge30" class="edge">
<title>yacut.web.views-&gt;yacut.web.exceptions</title>
<path fill="none" stroke="#000000" d="M471.6081,-180.1686C490.3221,-189.5911 513.3664,-201.1938 533.2632,-211.2117"/>
<polygon fill="#000000" stroke="#000000" points="542.4498,-215.8372 531.4943,-215.3593 537.9839,-213.5886 533.5181,-211.34 533.5181,-211.34 533.5181,-211.34 537.9839,-213.5886 535.5418,-207.3207 542.4498,-215.8372 542.4498,-215.8372"/>
</g>
<!-- yacut.web.views&#45;&gt;yacut.web.forms -->
<g id="edge31" class="edge">
<title>yacut.web.views-&gt;yacut.web.forms</title>
<path fill="none" stroke="#000000" d="M445.6553,-180.2377C459.5408,-205.2318 484.583,-250.3076 500.6116,-279.1591"/>
<polygon fill="#000000" stroke="#000000" points="505.4734,-287.9104 496.6832,-281.3542 503.0452,-283.5396 500.6169,-279.1688 500.6169,-279.1688 500.6169,-279.1688 503.0452,-283.5396 504.5506,-276.9834 505.4734,-287.9104 505.4734,-287.9104"/>
</g>
</g>
</svg>