<?xml version="1.0" encoding="UTF-8" standalone="no"?>
<!DOCTYPE svg PUBLIC "-//W3C//DTD SVG 1.1//EN" "http://www.w3.org/Graphics/SVG/1.1/DTD/svg11.dtd">
<!-- Generated by graphviz version 2.40.1 (20161225.0304)
 -->
<!-- Title: packages Pages: 1 -->
<svg width="694pt" height="476pt" viewBox="0.00 0.00 693.78 476.00" xmlns="http://www.w3.org/2000/svg" xmlns:xlink="http://www.w3.org/1999/xlink">
<g id="graph0" class="graph" transform="scale(1 1) rotate(0) translate(4 472)">
<title>packages</title>
<polygon fill="#ffffff" stroke="transparent" points="-4,4 -4,-472 689.7785,-472 689.7785,4 -4,4"/>
<!-- yacut -->
<g id="node1" class="node">
<title>yacut</title>
<polygon fill="none" stroke="#000000" points="359.1473,-36 305.1473,-36 305.1473,0 359.1473,0 359.1473,-36"/>
<text text-anchor="middle" x="332.1473" y="-13.8" font-family="Times,serif" font-size="14.00" fill="#000000">yacut</text>
</g>
<!-- yacut&#45;&gt;yacut -->
<g id="edge1" class="edge">
<title>yacut-&gt;yacut</title>
<path fill="none" stroke="#000000" d="M359.3881,-4.5132C369.1712,-4.2231 377.1473,-8.7188 377.1473,-18 377.1473,-23.8008 374.0316,-27.7322 369.3064,-29.7942"/>
<polygon fill="#000000" stroke="#000000" points="359.3881,-31.4868 368.4885,-25.3686 364.3168,-30.6456 369.2456,-29.8045 369.2456,-29.8045 369.2456,-29.8045 364.3168,-30.6456 370.0026,-34.2403 359.3881,-31.4868 359.3881,-31.4868"/>
</g>
<!-- yacut.api -->
<g id="node2" class="node">
<title>yacut.api</title>
<polygon fill="none" stroke="#000000" points="239.5723,-108 172.7223,-108 172.7223,-72 239.5723,-72 239.5723,-108"/>
<text text-anchor="middle" x="206.1473" y="-85.8" font-family="Times,serif" font-size="14.00" fill="#000000">yacut.api</text>
</g>
<!-- yacut&#45;&gt;yacut.api -->
<g id="edge2" class="edge">
<title>yacut-&gt;yacut.api</title>
<path fill="none" stroke="#000000" d="M305.1171,-33.4458C288.1377,-43.1483 265.9161,-55.8464 246.8318,-66.7517"/>
<polygon fill="#000000" stroke="#000000" points="238.034,-71.779 244.4838,-62.9105 242.3752,-69.2983 246.7165,-66.8176 246.7165,-66.8176 246.7165,-66.8176 242.3752,-69.2983 248.9491,-70.7247 238.034,-71.779 238.034,-71.779"/>
</g>
<!-- yacut.models -->
<g id="node8" class="node">
<title>yacut.models</title>
<polygon fill="none" stroke="#000000" points="365.4079,-396 274.8867,-396 274.8867,-360 365.4079,-360 365.4079,-396"/>
<text text-anchor="middle" x="320.1473" y="-373.8" font-family="Times,serif" font-size="14.00" fill="#000000">yacut.models</text>
</g>
<!-- yacut&#45;&gt;yacut.models -->
<g id="edge3" class="edge">
<title>yacut-&gt;yacut.models</title>
<path fill="none" stroke="#000000" d="M326.3283,-36.1854C323.1473,-63.5017 323.1473,-116.75 323.1473,-162 323.1473,-162 323.1473,-162 323.1473,-234 323.1473,-274.2631 318.4307,-320.6406 317.1293,-349.6404"/>
<polygon fill="#000000" stroke="#000000" points="316.8147,-359.855 312.6247,-349.7212 316.9686,-354.8574 317.1226,-349.8597 317.1226,-349.8597 317.1226,-349.8597 316.9686,-354.8574 321.6205,-349.9983 316.8147,-359.855 316.8147,-359.855"/>
</g>
<!-- yacut.settings -->
<g id="node9" class="node">
<title>yacut.settings</title>
<polygon fill="none" stroke="#000000" points="402.2436,-468 310.051,-468 310.051,-432 402.2436,-432 402.2436,-468"/>
<text text-anchor="middle" x="356.1473" y="-445.8" font-family="Times,serif" font-size="14.00" fill="#000000">yacut.settings</text>
</g>
<!-- yacut&#45;&gt;yacut.settings -->
<g id="edge4" class="edge">
<title>yacut-&gt;yacut.settings</title>
<path fill="none" stroke="#000000" d="M342.1148,-36.0228C355.9112,-62.7027 379.1473,-114.6637 379.1473,-162 379.1473,-162 379.1473,-162 379.1473,-234 379.1473,-306.0343 386.7814,-325.0823 374.1473,-396 372.5947,-404.715 369.9247,-413.9428 367.1095,-422.2574"/>
<polygon fill="#000000" stroke="#000000" points="363.6687,-431.8506 362.809,-420.9185 365.3568,-427.1442 367.0448,-422.4377 367.0448,-422.4377 367.0448,-422.4377 365.3568,-427.1442 371.2806,-423.957 363.6687,-431.8506 363.6687,-431.8506"/>
</g>
<!-- yacut.web -->
<g id="node10" class="node">
<title>yacut.web</title>
<polygon fill="none" stroke="#000000" points="518.7884,-108 445.5062,-108 445.5062,-72 518.7884,-72 518.7884,-108"/>
<text text-anchor="middle" x="482.1473" y="-85.8" font-family="Times,serif" font-size="14.00" fill="#000000">yacut.web</text>
</g>
<!-- yacut&#45;&gt;yacut.web -->
<g id="edge5" class="edge">
<title>yacut-&gt;yacut.web</title>
<path fill="none" stroke="#000000" d="M359.3112,-31.0387C380.7407,-41.3249 411.1127,-55.9034 436.2937,-67.9903"/>
<polygon fill="#000000" stroke="#000000" points="445.3099,-72.318 434.3473,-72.0475 440.8022,-70.1543 436.2946,-67.9907 436.2946,-67.9907 436.2946,-67.9907 440.8022,-70.1543 438.2419,-63.9338 445.3099,-72.318 445.3099,-72.318"/>
</g>
<!-- yacut.api&#45;&gt;yacut.api -->
<g id="edge6" class="edge">
<title>yacut.api-&gt;yacut.api</title>
<path fill="none" stroke="#000000" d="M239.8043,-76.5297C249.818,-76.9318 257.6098,-81.4219 257.6098,-90 257.6098,-95.3613 254.5661,-99.1258 249.8386,-101.2933"/>
<polygon fill="#000000" stroke="#000000" points="239.8043,-103.4703 248.6228,-96.9524 244.6906,-102.4102 249.5769,-101.35 249.5769,-101.35 249.5769,-101.35 244.6906,-102.4102 250.531,-105.7477 239.8043,-103.4703 239.8043,-103.4703"/>
</g>
<!-- yacut.api.errorhandlers -->
<g id="node3" class="node">
<title>yacut.api.errorhandlers</title>
<polygon fill="none" stroke="#000000" points="173.6937,-180 28.6009,-180 28.6009,-144 173.6937,-144 173.6937,-180"/>
<text text-anchor="middle" x="101.1473" y="-157.8" font-family="Times,serif" font-size="14.00" fill="#000000">yacut.api.errorhandlers</text>
</g>
<!-- yacut.api&#45;&gt;yacut.api.errorhandlers -->
<g id="edge7" class="edge">
<title>yacut.api-&gt;yacut.api.errorhandlers</title>
<path fill="none" stroke="#000000" d="M179.6514,-108.1686C166.4699,-117.2073 150.3626,-128.2524 136.1762,-137.9802"/>
<polygon fill="#000000" stroke="#000000" points="127.6348,-143.8372 133.3372,-134.4706 131.7584,-141.0095 135.8821,-138.1818 135.8821,-138.1818 135.8821,-138.1818 131.7584,-141.0095 138.427,-141.8931 127.6348,-143.8372 127.6348,-143.8372"/>
</g>
<!-- yacut.api.views -->
<g id="node7" class="node">
<title>yacut.api.views</title>
<polygon fill="none" stroke="#000000" points="294.7287,-180 191.5659,-180 191.5659,-144 294.7287,-144 294.7287,-180"/>
<text text-anchor="middle" x="243.1473" y="-157.8" font-family="Times,serif" font-size="14.00" fill="#000000">yacut.api.views</text>
</g>
<!-- yacut.api&#45;&gt;yacut.api.views -->
<g id="edge8" class="edge">
<title>yacut.api-&gt;yacut.api.views</title>
<path fill="none" stroke="#000000" d="M215.484,-108.1686C219.5716,-116.1229 224.4577,-125.631 228.9782,-134.4277"/>
<polygon fill="#000000" stroke="#000000" points="233.6849,-143.5867 225.1117,-136.7492 231.3996,-139.1396 229.1142,-134.6924 229.1142,-134.6924 229.1142,-134.6924 231.3996,-139.1396 233.1166,-132.6356 233.6849,-143.5867 233.6849,-143.5867"/>
</g>
<!-- yacut.api.errorhandlers&#45;&gt;yacut -->
<g id="edge9" class="edge">
<title>yacut.api.errorhandlers-&gt;yacut</title>
<path fill="none" stroke="#000000" d="M109.4021,-143.7857C119.5148,-123.4462 138.5147,-90.9073 164.1473,-72 203.3045,-43.1166 258.5379,-29.2874 294.8288,-22.9502"/>
<polygon fill="#000000" stroke="#000000" points="304.9885,-21.2852 295.8479,-27.3433 300.0543,-22.0939 295.1201,-22.9025 295.1201,-22.9025 295.1201,-22.9025 300.0543,-22.0939 294.3923,-18.4617 304.9885,-21.2852 304.9885,-21.2852"/>
</g>
<!-- yacut.api.exceptions -->
<g id="node4" class="node">
<title>yacut.api.exceptions</title>
<polygon fill="none" stroke="#000000" points="130.4422,-396 -.1476,-396 -.1476,-360 130.4422,-360 130.4422,-396"/>
<text text-anchor="middle" x="65.1473" y="-373.8" font-family="Times,serif" font-size="14.00" fill="#000000">yacut.api.exceptions</text>
</g>
<!-- yacut.api.errorhandlers&#45;&gt;yacut.api.exceptions -->
<g id="edge10" class="edge">
<title>yacut.api.errorhandlers-&gt;yacut.api.exceptions</title>
<path fill="none" stroke="#000000" d="M93.9285,-180.4151C84.8574,-204.6365 69.7933,-248.7342 64.1473,-288 61.8701,-303.8371 63.9992,-308.0007 64.1473,-324 64.2234,-332.2144 64.3645,-341.1309 64.5172,-349.3067"/>
<polygon fill="#000000" stroke="#000000" points="64.7202,-359.5068 60.022,-349.5984 64.6207,-354.5078 64.5211,-349.5088 64.5211,-349.5088 64.5211,-349.5088 64.6207,-354.5078 69.0202,-349.4192 64.7202,-359.5068 64.7202,-359.5068"/>
</g>
<!-- yacut.api.utils -->
<g id="node5" class="node">
<title>yacut.api.utils</title>
<polygon fill="none" stroke="#000000" points="290.1898,-252 196.1048,-252 196.1048,-216 290.1898,-216 290.1898,-252"/>
<text text-anchor="middle" x="243.1473" y="-229.8" font-family="Times,serif" font-size="14.00" fill="#000000">yacut.api.utils</text>
</g>
<!-- yacut.api.utils&#45;&gt;yacut.api.exceptions -->
<g id="edge11" class="edge">
<title>yacut.api.utils-&gt;yacut.api.exceptions</title>
<path fill="none" stroke="#000000" d="M195.8284,-244.5936C154.6233,-254.764 99.1904,-271.0453 84.1473,-288 69.3027,-304.731 65.0142,-330.0948 64.1745,-349.6369"/>
<polygon fill="#000000" stroke="#000000" points="64.0176,-359.8028 59.6725,-349.7346 64.0948,-354.8034 64.172,-349.804 64.172,-349.804 64.172,-349.804 64.0948,-354.8034 68.6714,-349.8735 64.0176,-359.8028 64.0176,-359.8028"/>
</g>
<!-- yacut.api.validators -->
<g id="node6" class="node">
<title>yacut.api.validators</title>
<polygon fill="none" stroke="#000000" points="218.779,-324 93.5156,-324 93.5156,-288 218.779,-288 218.779,-324"/>
<text text-anchor="middle" x="156.1473" y="-301.8" font-family="Times,serif" font-size="14.00" fill="#000000">yacut.api.validators</text>
</g>
<!-- yacut.api.utils&#45;&gt;yacut.api.validators -->
<g id="edge12" class="edge">
<title>yacut.api.utils-&gt;yacut.api.validators</title>
<path fill="none" stroke="#000000" d="M221.1935,-252.1686C210.4778,-261.0368 197.4284,-271.8363 185.8383,-281.4282"/>
<polygon fill="#000000" stroke="#000000" points="178.094,-287.8372 182.9289,-277.9947 181.946,-284.6493 185.798,-281.4615 185.798,-281.4615 185.798,-281.4615 181.946,-284.6493 188.6671,-284.9282 178.094,-287.8372 178.094,-287.8372"/>
</g>
<!-- yacut.api.utils&#45;&gt;yacut.models -->
<g id="edge13" class="edge">
<title>yacut.api.utils-&gt;yacut.models</title>
<path fill="none" stroke="#000000" d="M252.8994,-252.2377C266.2064,-277.1236 290.1589,-321.9178 305.594,-350.7835"/>
<polygon fill="#000000" stroke="#000000" points="310.4744,-359.9104 301.7906,-353.2139 308.1166,-355.5012 305.7589,-351.0919 305.7589,-351.0919 305.7589,-351.0919 308.1166,-355.5012 309.7272,-348.97 310.4744,-359.9104 310.4744,-359.9104"/>
</g>
<!-- yacut.api.utils&#45;&gt;yacut.settings -->
<g id="edge14" class="edge">
<title>yacut.api.utils-&gt;yacut.settings</title>
<path fill="none" stroke="#000000" d="M240.9731,-252.0342C238.0847,-283.927 236.39,-351.1411 266.1473,-396 274.7406,-408.9543 287.6015,-419.2716 300.9314,-427.2708"/>
<polygon fill="#000000" stroke="#000000" points="309.7186,-432.1971 298.7952,-431.2321 305.3572,-429.752 300.9958,-427.3069 300.9958,-427.3069 300.9958,-427.3069 305.3572,-429.752 303.1964,-423.3816 309.7186,-432.1971 309.7186,-432.1971"/>
</g>
<!-- yacut.api.validators&#45;&gt;yacut.api.exceptions -->
<g id="edge15" class="edge">
<title>yacut.api.validators-&gt;yacut.api.exceptions</title>
<path fill="none" stroke="#000000" d="M133.1842,-324.1686C121.9758,-333.0368 108.3264,-343.8363 96.2034,-353.4282"/>
<polygon fill="#000000" stroke="#000000" points="88.1031,-359.8372 93.1531,-350.1033 92.0242,-356.7347 95.9453,-353.6323 95.9453,-353.6323 95.9453,-353.6323 92.0242,-356.7347 98.7375,-357.1613 88.1031,-359.8372 88.1031,-359.8372"/>
</g>
<!-- yacut.api.validators&#45;&gt;yacut.models -->
<g id="edge16" class="edge">
<title>yacut.api.validators-&gt;yacut.models</title>
<path fill="none" stroke="#000000" d="M197.5314,-324.1686C219.4655,-333.7982 246.5865,-345.705 269.7404,-355.8701"/>
<polygon fill="#000000" stroke="#000000" points="279.0608,-359.962 268.0953,-360.0625 274.4825,-357.952 269.9043,-355.942 269.9043,-355.942 269.9043,-355.942 274.4825,-357.952 271.7133,-351.8216 279.0608,-359.962 279.0608,-359.962"/>
</g>
<!-- yacut.api.validators&#45;&gt;yacut.settings -->
<g id="edge17" class="edge">
<title>yacut.api.validators-&gt;yacut.settings</title>
<path fill="none" stroke="#000000" d="M167.8423,-324.0074C181.4967,-343.8553 205.735,-375.659 233.1473,-396 253.2954,-410.9507 278.2311,-422.8721 300.3725,-431.6699"/>
<polygon fill="#000000" stroke="#000000" points="309.9939,-435.3701 299.045,-435.9806 305.3271,-433.5753 300.6603,-431.7805 300.6603,-431.7805 300.6603,-431.7805 305.3271,-433.5753 302.2757,-427.5804 309.9939,-435.3701 309.9939,-435.3701"/>
</g>
<!-- yacut.api.views&#45;&gt;yacut -->
<g id="edge18" class="edge">
<title>yacut.api.views-&gt;yacut</title>
<path fill="none" stroke="#000000" d="M254.3277,-143.9104C269.7262,-118.9959 297.5808,-73.9278 315.4522,-45.0123"/>
<polygon fill="#000000" stroke="#000000" points="320.8754,-36.2377 319.4458,-47.11 318.2466,-40.4909 315.6179,-44.7441 315.6179,-44.7441 315.6179,-44.7441 318.2466,-40.4909 311.79,-42.3783 320.8754,-36.2377 320.8754,-36.2377"/>
</g>
<!-- yacut.api.views&#45;&gt;yacut.api.utils -->
<g id="edge19" class="edge">
<title>yacut.api.views-&gt;yacut.api.utils</title>
<path fill="none" stroke="#000000" d="M243.1473,-180.1686C243.1473,-187.869 243.1473,-197.0257 243.1473,-205.5834"/>
<polygon fill="#000000" stroke="#000000" points="243.1473,-215.5867 238.6474,-205.5867 243.1473,-210.5867 243.1474,-205.5867 243.1474,-205.5867 243.1474,-205.5867 243.1473,-210.5867 247.6474,-205.5868 243.1473,-215.5867 243.1473,-215.5867"/>
</g>
<!-- yacut.models&#45;&gt;yacut -->
<g id="edge20" class="edge">
<title>yacut.models-&gt;yacut</title>
<path fill="none" stroke="#000000" d="M328.4527,-359.855C335.1486,-332.5902 341.1473,-279.4068 341.1473,-234 341.1473,-162 341.1473,-162 341.1473,-162 341.1473,-121.876 341.1473,-75.4631 338.9295,-46.4177"/>
<polygon fill="#000000" stroke="#000000" points="337.9663,-36.1854 343.3838,-45.7196 338.435,-41.1634 338.9036,-46.1414 338.9036,-46.1414 338.9036,-46.1414 338.435,-41.1634 334.4234,-46.5631 337.9663,-36.1854 337.9663,-36.1854"/>
</g>
<!-- yacut.models&#45;&gt;yacut.settings -->
<g id="edge21" class="edge">
<title>yacut.models-&gt;yacut.settings</title>
<path fill="none" stroke="#000000" d="M329.2316,-396.1686C333.2088,-404.1229 337.9628,-413.631 342.3612,-422.4277"/>
<polygon fill="#000000" stroke="#000000" points="346.9407,-431.5867 338.4435,-424.6549 344.7046,-427.1146 342.4685,-422.6425 342.4685,-422.6425 342.4685,-422.6425 344.7046,-427.1146 346.4934,-420.63 346.9407,-431.5867 346.9407,-431.5867"/>
</g>
<!-- yacut.web&#45;&gt;yacut.web -->
<g id="edge22" class="edge">
<title>yacut.web-&gt;yacut.web</title>
<path fill="none" stroke="#000000" d="M518.8736,-76.5824C528.9883,-77.2306 536.7178,-81.7031 536.7178,-90 536.7178,-95.1855 533.6985,-98.8772 528.9645,-101.075"/>
<polygon fill="#000000" stroke="#000000" points="518.8736,-103.4176 527.5969,-96.7727 523.744,-102.2869 528.6145,-101.1562 528.6145,-101.1562 528.6145,-101.1562 523.744,-102.2869 529.6322,-105.5396 518.8736,-103.4176 518.8736,-103.4176"/>
</g>
<!-- yacut.web.errorhandlers -->
<g id="node11" class="node">
<title>yacut.web.errorhandlers</title>
<polygon fill="none" stroke="#000000" points="685.9099,-180 534.3847,-180 534.3847,-144 685.9099,-144 685.9099,-180"/>
<text text-anchor="middle" x="610.1473" y="-157.8" font-family="Times,serif" font-size="14.00" fill="#000000">yacut.web.errorhandlers</text>
</g>
<!-- yacut.web&#45;&gt;yacut.web.errorhandlers -->
<g id="edge23" class="edge">
<title>yacut.web-&gt;yacut.web.errorhandlers</title>
<path fill="none" stroke="#000000" d="M514.4471,-108.1686C530.9707,-117.4632 551.2659,-128.8792 568.908,-138.8029"/>
<polygon fill="#000000" stroke="#000000" points="577.8578,-143.8372 566.9359,-142.8566 573.4999,-141.3858 569.1421,-138.9345 569.1421,-138.9345 569.1421,-138.9345 573.4999,-141.3858 571.3483,-135.0124 577.8578,-143.8372 577.8578,-143.8372"/>
</g>
<!-- yacut.web.views -->
<g id="node14" class="node">
<title>yacut.web.views</title>
<polygon fill="none" stroke="#000000" points="516.9451,-180 407.3495,-180 407.3495,-144 516.9451,-144 516.9451,-180"/>
<text text-anchor="middle" x="462.1473" y="-157.8" font-family="Times,serif" font-size="14.00" fill="#000000">yacut.web.views</text>
</g>
<!-- yacut.web&#45;&gt;yacut.web.views -->
<g id="edge24" class="edge">
<title>yacut.web-&gt;yacut.web.views</title>
<path fill="none" stroke="#000000" d="M477.1005,-108.1686C474.9379,-115.9537 472.362,-125.2271 469.9625,-133.8653"/>
<polygon fill="#000000" stroke="#000000" points="467.2621,-143.5867 465.6028,-132.7471 468.6004,-138.7691 469.9386,-133.9516 469.9386,-133.9516 469.9386,-133.9516 468.6004,-138.7691 474.2744,-135.156 467.2621,-143.5867 467.2621,-143.5867"/>
</g>
<!-- yacut.web.errorhandlers&#45;&gt;yacut -->
<g id="edge25" class="edge">
<title>yacut.web.errorhandlers-&gt;yacut</title>
<path fill="none" stroke="#000000" d="M602.0835,-143.8536C591.9876,-123.262 572.7332,-90.1851 546.1473,-72 517.6093,-52.4797 422.9573,-33.6453 369.5885,-24.2306"/>
<polygon fill="#000000" stroke="#000000" points="359.497,-22.4759 370.1202,-19.7556 364.4231,-23.3325 369.3492,-24.1891 369.3492,-24.1891 369.3492,-24.1891 364.4231,-23.3325 368.5783,-28.6226 359.497,-22.4759 359.497,-22.4759"/>
</g>
<!-- yacut.web.exceptions -->
<g id="node12" class="node">
<title>yacut.web.exceptions</title>
<polygon fill="none" stroke="#000000" points="672.1588,-252 536.1358,-252 536.1358,-216 672.1588,-216 672.1588,-252"/>
<text text-anchor="middle" x="604.1473" y="-229.8" font-family="Times,serif" font-size="14.00" fill="#000000">yacut.web.exceptions</text>
</g>
<!-- yacut.web.errorhandlers&#45;&gt;yacut.web.exceptions -->
<g id="edge26" class="edge">
<title>yacut.web.errorhandlers-&gt;yacut.web.exceptions</title>
<path fill="none" stroke="#000000" d="M608.6332,-180.1686C607.9915,-187.869 607.2285,-197.0257 606.5154,-205.5834"/>
<polygon fill="#000000" stroke="#000000" points="605.6817,-215.5867 602.0278,-205.2475 606.097,-210.604 606.5123,-205.6213 606.5123,-205.6213 606.5123,-205.6213 606.097,-210.604 610.9967,-205.995 605.6817,-215.5867 605.6817,-215.5867"/>
</g>
<!-- yacut.web.forms -->
<g id="node13" class="node">
<title>yacut.web.forms</title>
<polygon fill="none" stroke="#000000" points="592.9451,-324 483.3495,-324 483.3495,-288 592.9451,-288 592.9451,-324"/>
<text text-anchor="middle" x="538.1473" y="-301.8" font-family="Times,serif" font-size="14.00" fill="#000000">yacut.web.forms</text>
</g>
<!-- yacut.web.forms&#45;&gt;yacut.settings -->
<g id="edge27" class="edge">
<title>yacut.web.forms-&gt;yacut.settings</title>
<path fill="none" stroke="#000000" d="M527.7555,-324.2764C515.7517,-344.0673 494.3821,-375.5413 469.1473,-396 452.1653,-409.7679 431.0915,-421.0509 411.7598,-429.6771"/>
<polygon fill="#000000" stroke="#000000" points="402.4352,-433.6977 409.8362,-425.606 407.0266,-431.718 411.618,-429.7382 411.618,-429.7382 411.618,-429.7382 407.0266,-431.718 413.3997,-433.8705 402.4352,-433.6977 402.4352,-433.6977"/>
</g>
<!-- yacut.web.views&#45;&gt;yacut -->
<g id="edge28" class="edge">
<title>yacut.web.views-&gt;yacut</title>
<path fill="none" stroke="#000000" d="M449.8653,-143.9464C436.747,-125.177 414.8917,-95.3346 393.1473,-72 383.7129,-61.8756 372.5794,-51.6022 362.4238,-42.7725"/>
<polygon fill="#000000" stroke="#000000" points="354.5399,-36.0312 365.0648,-39.1099 358.3401,-39.2807 362.1403,-42.5301 362.1403,-42.5301 362.1403,-42.5301 358.3401,-39.2807 359.2158,-45.9503 354.5399,-36.0312 354.5399,-36.0312"/>
</g>
<!-- yacut.web.views&#45;&gt;yacut.models -->
<g id="edge29" class="edge">
<title>yacut.web.views-&gt;yacut.models</title>
<path fill="none" stroke="#000000" d="M450.2847,-180.0445C425.2781,-218.0827 367.0488,-306.6569 337.7084,-351.2873"/>
<polygon fill="#000000" stroke="#000000" points="332.076,-359.8549 333.8091,-349.0269 334.8227,-355.6769 337.5694,-351.4989 337.5694,-351.4989 337.5694,-351.4989 334.8227,-355.6769 341.3296,-353.9709 332.076,-359.8549 332.076,-359.8549"/>
</g>
<!-- yacut.web.views&#45;&gt;yacut.settings -->
<g id="edge30" class="edge">
<title>yacut.web.views-&gt;yacut.settings</title>
<path fill="none" stroke="#000000" d="M461.0827,-180.1429C458.0255,-221.0251 446.7105,-322.5083 407.1473,-396 401.5782,-406.345 393.5134,-416.1662 385.4347,-424.5262"/>
<polygon fill="#000000" stroke="#000000" points="378.0828,-431.7661 382.0505,-421.5432 381.6454,-428.2578 385.208,-424.7495 385.208,-424.7495 385.208,-424.7495 381.6454,-428.2578 388.3654,-427.9559 378.0828,-431.7661 378.0828,-431.7661"/>
</g>
<!-- yacut.web.views&#45;&gt;yacut.web.exceptions -->
<g id="edge31" class="edge">
<title>yacut.web.views-&gt;yacut.web.exceptions</title>
<path fill="none" stroke="#000000" d="M497.9799,-180.1686C516.563,-189.5911 539.4462,-201.1938 559.2038,-211.2117"/>
<polygon fill="#000000" stroke="#000000" points="568.3262,-215.8372 557.3721,-215.3284 563.8667,-213.576 559.4072,-211.3148 559.4072,-211.3148 559.4072,-211.3148 563.8667,-213.576 561.4422,-207.3012 568.3262,-215.8372 568.3262,-215.8372"/>
</g>
<!-- yacut.web.views&#45;&gt;yacut.web.forms -->
<g id="edge32" class="edge">
<title>yacut.web.views-&gt;yacut.web.forms</title>
<path fill="none" stroke="#000000" d="M471.7728,-180.2377C484.907,-205.1236 508.5483,-249.9178 523.7831,-278.7835"/>
<polygon fill="#000000" stroke="#000000" points="528.6,-287.9104 519.9526,-281.167 526.2662,-283.4885 523.9324,-279.0665 523.9324,-279.0665 523.9324,-279.0665 526.2662,-283.4885 527.9121,-276.9661 528.6,-287.9104 528.6,-287.9104"/>
</g>
</g>
</svg>